<?xml version="1.0" encoding="utf-8"?>
<!-- Generator: Adobe Illustrator 15.0.0, SVG Export Plug-In . SVG Version: 6.00 Build 0)  -->
<!DOCTYPE svg PUBLIC "-//W3C//DTD SVG 1.1//EN" "http://www.w3.org/Graphics/SVG/1.1/DTD/svg11.dtd">
<svg version="1.1" id="Layer_1" xmlns="http://www.w3.org/2000/svg" xmlns:xlink="http://www.w3.org/1999/xlink" x="0px" y="0px"
	 width="64px" height="64px" viewBox="0 0 64 64" enable-background="new 0 0 64 64" xml:space="preserve">
<g>
	<g>
		<path fill="#131019" d="M41.525,48.775c2.58-0.333,4.505-2.513,4.505-5.137V20.629c0-2.857-2.328-5.184-5.188-5.184h-8.308
			l3.705-7.958l1.882-3.892h4.756l0.024,2.714h0.782V2.833H26.602h-0.704h-6.384V6.31h0.767l-0.024-2.714h5.937l4.6,11.85h-7.635
			c-2.86,0-5.188,2.327-5.188,5.184v23.009c0,2.626,1.928,4.804,4.511,5.139l-4.604,12.207l-0.07,0.182h4.397l4.655-12.338h10.287
			l4.559,12.087l0.09,0.234h4.396L41.525,48.775z M26.998,3.596H37.25l-1.666,3.578l-3.992,8.243L26.998,3.596z M26.815,17.103
			h10.373v3.185H26.815V17.103z M21.255,29.234v-2.41c0-2.86,2.326-5.188,5.187-5.188h11.117c2.86,0,5.188,2.327,5.188,5.188v2.41
			c0,2.86-2.327,5.188-5.188,5.188H26.441C23.581,34.422,21.255,32.094,21.255,29.234z M24.968,44.153
			c-1.309,0-2.375-1.064-2.375-2.374c0-1.309,1.065-2.374,2.375-2.374c1.308,0,2.373,1.065,2.373,2.374
			C27.341,43.089,26.276,44.153,24.968,44.153z M39.081,44.397c-1.31,0-2.374-1.067-2.374-2.376c0-1.31,1.064-2.372,2.374-2.372
			c1.308,0,2.372,1.063,2.372,2.372C41.453,43.33,40.389,44.397,39.081,44.397z"/>
	</g>
</g>
</svg>
